<svg xmlns="http://www.w3.org/2000/svg" viewBox="0 0 1800 1100" role="img" aria-label="New Zealand inspired mountain, lake, and forest landscape">
  <defs>
    <linearGradient id="sky" x1="0" x2="0" y1="0" y2="1">
      <stop offset="0" stop-color="#77bff2"/>
      <stop offset="0.48" stop-color="#b9e4f7"/>
      <stop offset="1" stop-color="#f5fbff"/>
    </linearGradient>
    <linearGradient id="lake" x1="0" x2="1" y1="0" y2="1">
      <stop offset="0" stop-color="#0f7f9f"/>
      <stop offset="0.55" stop-color="#1aa6b7"/>
      <stop offset="1" stop-color="#9be3df"/>
    </linearGradient>
    <linearGradient id="mountain" x1="0" x2="0" y1="0" y2="1">
      <stop offset="0" stop-color="#496a78"/>
      <stop offset="1" stop-color="#1d3f45"/>
    </linearGradient>
    <linearGradient id="forest" x1="0" x2="0" y1="0" y2="1">
      <stop offset="0" stop-color="#1f7a58"/>
      <stop offset="1" stop-color="#0d3f38"/>
    </linearGradient>
    <radialGradient id="sun" cx="62%" cy="18%" r="26%">
      <stop offset="0" stop-color="#fff6c7" stop-opacity="0.95"/>
      <stop offset="1" stop-color="#fff6c7" stop-opacity="0"/>
    </radialGradient>
  </defs>
  <rect width="1800" height="1100" fill="url(#sky)"/>
  <rect width="1800" height="720" fill="url(#sun)"/>
  <path d="M0 520 210 290 390 500 560 210 790 520 980 250 1220 525 1440 300 1800 560V740H0Z" fill="#234b55" opacity="0.42"/>
  <path d="M0 600 240 360 460 630 690 300 910 610 1110 360 1350 630 1600 420 1800 640V800H0Z" fill="url(#mountain)"/>
  <path d="M555 218 610 340 690 300 760 395 790 520 560 210Z" fill="#f2fbff" opacity="0.92"/>
  <path d="M966 268 1030 385 1110 360 1196 464 1220 525 980 250Z" fill="#eef9ff" opacity="0.86"/>
  <path d="M1425 318 1494 430 1600 420 1692 510 1800 640 1440 300Z" fill="#eef9ff" opacity="0.78"/>
  <path d="M0 690C220 640 340 675 505 642c165-32 310-88 530-38 172 39 294 16 430-8 118-21 220-16 335 20v484H0Z" fill="url(#forest)"/>
  <path d="M0 760C230 724 400 756 590 730c250-34 402-88 650-18 194 55 365 27 560-15v403H0Z" fill="#145247" opacity="0.82"/>
  <path d="M0 760C230 792 380 840 585 806c276-46 427-42 690 2 205 34 362 28 525-22v314H0Z" fill="url(#lake)"/>
  <path d="M40 828c160 25 302 34 466 8 280-44 463-34 731 4 169 24 327 21 514-20" fill="none" stroke="#d8ffff" stroke-width="9" stroke-linecap="round" opacity="0.34"/>
  <path d="M124 914c210 28 362 25 560-4 230-34 414-18 642 14 126 18 258 12 382-10" fill="none" stroke="#ffffff" stroke-width="6" stroke-linecap="round" opacity="0.24"/>
  <path d="M0 965c170-45 308-35 455-8 195 36 355 42 550-8 170-44 329-28 482 8 104 24 207 33 313 12v131H0Z" fill="#f5d8a7"/>
  <path d="M0 1010c194-38 343-14 514 12 190 30 350 29 542-12 141-30 274-25 424 12 108 26 210 38 320 19v59H0Z" fill="#e9bd78" opacity="0.75"/>
</svg>
